<?xml version="1.0" encoding="iso-8859-1"?>
<!-- Uploaded to: SVG Repo, www.svgrepo.com, Generator: SVG Repo Mixer Tools -->
<!DOCTYPE svg PUBLIC "-//W3C//DTD SVG 1.1//EN" "http://www.w3.org/Graphics/SVG/1.1/DTD/svg11.dtd">
<svg fill="#000000" version="1.1" id="Capa_1" xmlns="http://www.w3.org/2000/svg" xmlns:xlink="http://www.w3.org/1999/xlink" 
	 width="800px" height="800px" viewBox="0 0 83.818 83.818"
	 xml:space="preserve">
<g>
	<g>
		<path d="M42.538,28.277c-2.025-0.047-4.003-0.21-5.909-0.486c-0.199,1.576-0.32,3.193-0.358,4.846h6.268L42.538,28.277
			L42.538,28.277z"/>
		<path d="M42.538,17.015c-1.025,0.072-2.023,0.238-2.99,0.487c-1.101,2.026-1.985,4.731-2.562,7.807
			c1.789,0.259,3.646,0.413,5.552,0.46V17.015z"/>
		<path d="M30.133,43.924c1.613,2.184,3.732,3.963,6.191,5.168c-0.756-1.86-1.365-4.013-1.807-6.392
			C32.94,43.032,31.452,43.438,30.133,43.924z"/>
		<path d="M42.538,50.768v-8.964c-1.904,0.048-3.762,0.2-5.552,0.46c0.6,3.207,1.541,6.002,2.706,8.054
			C40.616,50.544,41.564,50.698,42.538,50.768z"/>
		<path d="M34.132,27.351c-1.929-0.395-3.698-0.9-5.28-1.516c-1.113,2.049-1.799,4.355-1.979,6.801h6.869
			C33.782,30.837,33.911,29.069,34.132,27.351z"/>
		<path d="M17.645,65.786h52.25c0.553,0,1-0.448,1-1v-39.25c0-0.551-0.447-1-1-1h-8.692c0.532,1.003,0.97,2.05,1.317,3.125h5.375
			c0.554,0,1,0.448,1,1c0,0.552-0.446,1-1,1h-4.828c0.219,1.025,0.349,2.07,0.402,3.125h2.426c1.654,0,3,1.346,3,3v25.5
			c0,1.654-1.346,3-3,3h-44.25c-1.654,0-3-1.346-3-3v-25.5c0-1.654,1.346-3,3-3h2.427c0.146-2.89,0.916-5.704,2.267-8.25h-8.693
			c-0.552,0-1,0.449-1,1v39.25C16.645,65.338,17.093,65.786,17.645,65.786z M20.395,27.661h3.125c0.553,0,1,0.448,1,1
			c0,0.552-0.447,1-1,1h-3.125c-0.553,0-1-0.448-1-1C19.395,28.109,19.842,27.661,20.395,27.661z"/>
		<path d="M42.538,35.144h-6.259c0.042,1.582,0.158,3.129,0.35,4.638c1.906-0.276,3.885-0.438,5.909-0.485V35.144z"/>
		<path d="M41.909,83.818c23.146,0,41.908-18.764,41.908-41.908C83.817,18.764,65.056,0,41.909,0C18.764,0,0.001,18.764,0.001,41.91
			C0,65.055,18.764,83.818,41.909,83.818z M14.645,25.536c0-1.654,1.346-3,3-3h9.297c0.196,0,0.368,0.071,0.522,0.168
			c2.679-3.947,6.63-6.786,11.25-8.012c1.639-0.436,3.328-0.655,5.025-0.66c0.002,0,0.005-0.002,0.008-0.002
			c0.008,0,0.016,0,0.023,0c0.007,0,0.015,0,0.021,0c0.004,0,0.007,0.002,0.011,0.002c1.694,0.005,3.385,0.225,5.022,0.66
			c4.621,1.225,8.571,4.065,11.251,8.012c0.154-0.097,0.326-0.168,0.521-0.168h9.297c1.654,0,3,1.346,3,3v39.25c0,1.654-1.346,3-3,3
			H17.645c-1.654,0-3-1.346-3-3V25.536z"/>
		<path d="M34.132,40.22c-0.212-1.65-0.343-3.348-0.386-5.076h-6.873c0.176,2.379,0.834,4.622,1.895,6.627
			C30.371,41.142,32.168,40.624,34.132,40.22z"/>
		<path d="M36.217,18.742c-2.351,1.174-4.386,2.873-5.959,4.949c1.289,0.467,2.73,0.859,4.26,1.181
			C34.939,22.606,35.509,20.54,36.217,18.742z"/>
		<path d="M51.229,49.062c2.438-1.207,4.539-2.979,6.142-5.15c-1.312-0.48-2.784-0.883-4.349-1.211
			C52.583,45.067,51.979,47.209,51.229,49.062z"/>
		<path d="M38.732,52.885c-0.006-0.002-0.012-0.002-0.018-0.004c-4.921-1.307-9.101-4.424-11.772-8.779
			c0-0.002-0.002-0.002-0.002-0.004c-1.726-2.813-2.702-6.015-2.868-9.312h-2.427c-0.552,0-1,0.449-1,1v25.5c0,0.552,0.448,1,1,1
			h44.25c0.553,0,1-0.448,1-1v-25.5c0-0.551-0.447-1-1-1H63.47c-0.166,3.297-1.144,6.497-2.869,9.312
			c0,0.002-0.002,0.002-0.002,0.004c-2.672,4.355-6.853,7.475-11.772,8.779c-0.006,0.002-0.013,0.002-0.019,0.004c0,0,0,0-0.002,0
			c-1.633,0.432-3.314,0.65-5.004,0.655c-0.004,0-0.006,0.002-0.01,0.002c-0.007,0-0.015-0.001-0.021-0.001
			c-0.008,0-0.016,0.001-0.022,0.001c-0.003,0-0.006-0.002-0.008-0.002c-1.69-0.005-3.373-0.225-5.006-0.655
			C38.733,52.885,38.732,52.885,38.732,52.885z"/>
		<path d="M57.245,23.702c-1.562-2.064-3.58-3.759-5.912-4.934c0.703,1.793,1.271,3.848,1.689,6.103
			C54.538,24.554,55.966,24.164,57.245,23.702z"/>
		<path d="M60.62,35.144h-6.826c-0.045,1.73-0.174,3.428-0.387,5.077c1.934,0.399,3.736,0.916,5.326,1.536
			C59.788,39.755,60.446,37.517,60.62,35.144z"/>
		<path d="M53.798,32.636h6.822c-0.18-2.439-0.863-4.74-1.971-6.785c-1.569,0.604-3.344,1.108-5.242,1.5
			C53.629,29.067,53.759,30.835,53.798,32.636z"/>
		<path d="M51.261,35.144h-6.215v4.152c2.012,0.049,3.973,0.211,5.865,0.485C51.103,38.274,51.218,36.726,51.261,35.144z"/>
		<path d="M50.554,42.264c-1.774-0.258-3.617-0.411-5.508-0.459v8.958c0.963-0.072,1.898-0.23,2.809-0.459
			C49.019,48.253,49.955,45.465,50.554,42.264z"/>
		<path d="M48.001,17.516c-0.956-0.249-1.941-0.419-2.955-0.497v8.75c1.891-0.049,3.732-0.202,5.508-0.46
			C49.979,22.24,49.097,19.54,48.001,17.516z"/>
		<path d="M50.911,27.79c-1.893,0.275-3.854,0.437-5.865,0.485v4.36h6.223C51.231,30.984,51.111,29.366,50.911,27.79z"/>
	</g>
</g>
</svg>